<svg class="svg-icon" style="width: 1em; height: 1em;vertical-align: middle;fill: currentColor;overflow: hidden;" viewBox="0 0 1024 1024" version="1.1" xmlns="http://www.w3.org/2000/svg"><path d="M896 455.111111c-17.066667 0-34.133333 2.844444-51.2 11.377778 5.688889-11.377778 8.533333-25.6 8.533333-39.822222 0-62.577778-51.2-113.777778-113.777777-113.777778-25.6 0-45.511111 8.533333-65.422223 19.911111C645.688889 224.711111 546.133333 142.222222 426.666667 142.222222c-142.222222 0-256 113.777778-256 256 0 11.377778 0 22.755556 2.844444 31.288889-11.377778-2.844444-19.911111-2.844444-31.288889-2.844444-79.644444 0-142.222222 62.577778-142.222222 142.222222s62.577778 142.222222 142.222222 142.222222h753.777778c71.111111 0 128-56.888889 128-128S967.111111 455.111111 896 455.111111z" fill="" /></svg>