<?xml version="1.0" standalone="no"?>
<!DOCTYPE svg PUBLIC "-//W3C//DTD SVG 20010904//EN"
 "http://www.w3.org/TR/2001/REC-SVG-20010904/DTD/svg10.dtd">
<svg version="1.0" xmlns="http://www.w3.org/2000/svg"
 width="184.000000pt" height="184.000000pt" viewBox="0 0 184.000000 184.000000"
 preserveAspectRatio="xMidYMid meet">
<metadata>
Created by potrace 1.14, written by Peter Selinger 2001-2017
</metadata>
<g transform="translate(0.000000,184.000000) scale(0.100000,-0.100000)"
fill="#000000" stroke="none">
<path d="M920 1737 c-3 -2 -29 -8 -58 -11 -132 -16 -285 -91 -403 -198 -115
-104 -216 -303 -234 -462 -38 -325 66 -577 317 -764 108 -81 281 -156 408
-177 25 -4 54 -10 65 -12 38 -9 270 -11 320 -3 55 9 63 11 180 35 106 21 112
25 38 21 -35 -2 -63 1 -63 5 0 4 -33 8 -72 8 -138 1 -279 56 -370 145 -77 76
-101 125 -104 215 -3 80 11 121 60 174 14 15 26 32 26 36 0 15 -47 29 -89 26
-92 -7 -156 -98 -155 -220 0 -76 24 -137 81 -206 25 -32 26 -33 3 -14 -80 64
-157 169 -196 267 -37 91 -38 209 -4 297 24 62 92 146 149 184 33 22 21 44
-36 69 -134 59 -283 -44 -338 -235 -49 -171 38 -400 206 -544 96 -82 242 -162
349 -193 87 -24 98 -30 50 -25 -52 6 -98 14 -122 21 -9 3 -26 7 -37 9 -79 15
-244 95 -326 159 -252 194 -347 507 -248 819 76 243 272 420 534 483 45 11
236 13 280 2 24 -5 49 -11 54 -12 139 -30 285 -145 345 -271 30 -62 34 -79 33
-147 -2 -80 -16 -121 -55 -158 -12 -11 -31 -18 -43 -16 -49 9 -119 -50 -111
-95 9 -53 35 -77 88 -81 63 -5 112 53 153 179 57 174 17 367 -103 495 -86 92
-207 158 -337 183 -43 9 -229 18 -235 12z"/>
</g>
</svg>
