<?xml version="1.0" standalone="no"?>
<!DOCTYPE svg PUBLIC "-//W3C//DTD SVG 20010904//EN"
 "http://www.w3.org/TR/2001/REC-SVG-20010904/DTD/svg10.dtd">
<svg version="1.0" xmlns="http://www.w3.org/2000/svg"
 width="425.000000pt" height="425.000000pt" viewBox="0 0 425.000000 425.000000"
 preserveAspectRatio="xMidYMid meet">
<metadata>
Created by potrace 1.14, written by Peter Selinger 2001-2017
</metadata>
<g transform="translate(0.000000,425.000000) scale(0.100000,-0.100000)"
fill="#000000" stroke="none">
<path d="M1969 4246 c-2 -2 -33 -6 -69 -9 -59 -6 -101 -12 -210 -32 -78 -14
-229 -59 -330 -97 -64 -25 -236 -106 -275 -130 -11 -7 -49 -30 -85 -52 -167
-101 -393 -299 -519 -456 -29 -36 -60 -74 -69 -85 -28 -34 -134 -206 -175
-285 -43 -81 -119 -264 -138 -333 -7 -23 -14 -46 -15 -52 -11 -34 -55 -227
-59 -260 -20 -145 -23 -200 -19 -370 3 -104 6 -201 8 -215 47 -374 191 -726
420 -1030 306 -406 779 -703 1266 -796 14 -3 32 -7 40 -9 8 -2 38 -7 65 -10
28 -4 61 -9 75 -12 44 -9 382 -11 465 -2 99 11 137 18 310 54 11 3 63 18 115
35 519 166 969 540 1225 1015 128 238 208 493 242 770 10 79 9 402 -1 485 -68
560 -345 1059 -785 1414 -295 238 -672 399 -1061 451 -49 7 -415 16 -421 11z"/>
</g>
</svg>
